<svg width="49" height="49" viewBox="0 0 49 49" fill="none" xmlns="http://www.w3.org/2000/svg">
<path d="M21.5699 31.8201C21.7599 31.8201 21.9499 31.7501 22.0999 31.6001C22.3899 31.3101 22.3899 30.8301 22.0999 30.5401L16.5599 25.0001L22.0999 19.4601C22.3899 19.1701 22.3899 18.6901 22.0999 18.4001C21.8099 18.1101 21.3299 18.1101 21.0399 18.4001L14.9699 24.4701C14.6799 24.7601 14.6799 25.2401 14.9699 25.5301L21.0399 31.6001C21.1899 31.7501 21.3799 31.8201 21.5699 31.8201Z" fill="#292D32"/>
<path d="M15.67 25.75H32.5C32.91 25.75 33.25 25.41 33.25 25C33.25 24.59 32.91 24.25 32.5 24.25H15.67C15.26 24.25 14.92 24.59 14.92 25C14.92 25.41 15.26 25.75 15.67 25.75Z" fill="#292D32"/>
<circle cx="24.5" cy="24.5" r="24" stroke="#E0E0E0"/>
</svg>
