<svg width="34" height="34" viewBox="0 0 34 34" fill="none" xmlns="http://www.w3.org/2000/svg">
<path fill-rule="evenodd" clip-rule="evenodd" d="M16.9998 0C17.6548 0 18.1858 0.531011 18.1858 1.18605V4.34884C18.1858 5.00387 17.6548 5.53488 16.9998 5.53488C16.3447 5.53488 15.8137 5.00387 15.8137 4.34884V1.18605C15.8137 0.531011 16.3447 0 16.9998 0Z" fill="#F47500"/>
<path fill-rule="evenodd" clip-rule="evenodd" d="M16.9999 6.32546C11.1046 6.32546 6.32546 11.1046 6.32546 16.9999C6.32546 22.8952 11.1046 27.6743 16.9999 27.6743C22.8952 27.6743 27.6743 22.8952 27.6743 16.9999C27.6743 11.1046 22.8952 6.32546 16.9999 6.32546ZM3.95337 16.9999C3.95337 9.79449 9.79449 3.95337 16.9999 3.95337C24.2053 3.95337 30.0464 9.79449 30.0464 16.9999C30.0464 24.2053 24.2053 30.0464 16.9999 30.0464C9.79449 30.0464 3.95337 24.2053 3.95337 16.9999Z" fill="#F47500"/>
<path fill-rule="evenodd" clip-rule="evenodd" d="M16.9998 13.4419C15.0347 13.4419 13.4417 15.035 13.4417 17.0001C13.4417 18.9652 15.0347 20.5582 16.9998 20.5582C18.9649 20.5582 20.558 18.9652 20.558 17.0001C20.558 15.035 18.9649 13.4419 16.9998 13.4419ZM11.0696 17.0001C11.0696 13.7249 13.7246 11.0698 16.9998 11.0698C20.275 11.0698 22.93 13.7249 22.93 17.0001C22.93 20.2752 20.275 22.9303 16.9998 22.9303C13.7246 22.9303 11.0696 20.2752 11.0696 17.0001Z" fill="#F47500"/>
<path fill-rule="evenodd" clip-rule="evenodd" d="M0 17C0 16.345 0.531011 15.814 1.18605 15.814H4.34884C5.00387 15.814 5.53488 16.345 5.53488 17C5.53488 17.655 5.00387 18.1861 4.34884 18.1861H1.18605C0.531011 18.1861 0 17.655 0 17Z" fill="#F47500"/>
<path fill-rule="evenodd" clip-rule="evenodd" d="M16.9998 28.4651C17.6548 28.4651 18.1858 28.9961 18.1858 29.6511V32.8139C18.1858 33.469 17.6548 34 16.9998 34C16.3447 34 15.8137 33.469 15.8137 32.8139V29.6511C15.8137 28.9961 16.3447 28.4651 16.9998 28.4651Z" fill="#F47500"/>
<path fill-rule="evenodd" clip-rule="evenodd" d="M28.4651 17C28.4651 16.345 28.9961 15.814 29.6511 15.814H32.8139C33.469 15.814 34 16.345 34 17C34 17.655 33.469 18.1861 32.8139 18.1861H29.6511C28.9961 18.1861 28.4651 17.655 28.4651 17Z" fill="#F47500"/>
</svg>
