<svg width="34" height="34" viewBox="0 0 34 34" fill="none" xmlns="http://www.w3.org/2000/svg">
<path fill-rule="evenodd" clip-rule="evenodd" d="M24.6457 8.71812C24.013 5.95603 22.5342 4.02371 20.6272 2.90566C18.5793 1.70506 16.1395 1.50288 13.9436 2.07815C11.7476 2.65343 9.71899 4.02616 8.51867 6.07627C7.46997 7.86741 7.09859 10.0992 7.71289 12.6138C1.86793 14.1537 2.32088 23.2541 8.94877 23.7264C8.9739 23.7282 8.99909 23.7291 9.02428 23.7291H22.705C24.6308 23.7443 26.4834 23.021 27.9069 21.7317C32.4417 17.7572 30.3201 10.0577 24.6457 8.71812ZM9.06239 14.5351C9.18769 14.5373 9.31551 14.5172 9.44044 14.4723C9.99264 14.2737 10.2793 13.6652 10.0808 13.113C9.18791 10.6295 9.48778 8.62682 10.3525 7.14995C11.232 5.64776 12.7574 4.58559 14.4821 4.13378C16.2068 3.68196 18.0542 3.8605 19.5524 4.73885C21.0252 5.60229 22.2632 7.20153 22.6953 9.80708C22.7721 10.2701 23.1436 10.6279 23.6093 10.6872C28.0444 11.2519 29.8601 17.202 26.5009 20.1383L26.4859 20.1517C25.4466 21.0954 24.1025 21.616 22.7184 21.6041L9.06402 21.6041C4.64486 21.255 4.66526 14.8833 9.06239 14.5351Z" fill="#F47500"/>
<path fill-rule="evenodd" clip-rule="evenodd" d="M17 21.604C17.5868 21.604 18.0625 22.0797 18.0625 22.6665V26.9165C18.0625 27.5033 17.5868 27.979 17 27.979C16.4132 27.979 15.9375 27.5033 15.9375 26.9165V22.6665C15.9375 22.0797 16.4132 21.604 17 21.604Z" fill="#F47500"/>
<path fill-rule="evenodd" clip-rule="evenodd" d="M17.0001 27.979C16.0221 27.979 15.2292 28.7718 15.2292 29.7498C15.2292 30.7278 16.0221 31.5207 17.0001 31.5207C17.9781 31.5207 18.7709 30.7278 18.7709 29.7498C18.7709 28.7718 17.9781 27.979 17.0001 27.979ZM13.1042 29.7498C13.1042 27.5982 14.8485 25.854 17.0001 25.854C19.1517 25.854 20.8959 27.5982 20.8959 29.7498C20.8959 31.9014 19.1517 33.6457 17.0001 33.6457C14.8485 33.6457 13.1042 31.9014 13.1042 29.7498Z" fill="#F47500"/>
<path fill-rule="evenodd" clip-rule="evenodd" d="M18.771 29.75C18.771 29.1632 19.2467 28.6875 19.8335 28.6875H25.5002C26.087 28.6875 26.5627 29.1632 26.5627 29.75C26.5627 30.3368 26.087 30.8125 25.5002 30.8125H19.8335C19.2467 30.8125 18.771 30.3368 18.771 29.75Z" fill="#F47500"/>
<path fill-rule="evenodd" clip-rule="evenodd" d="M7.4375 29.75C7.4375 29.1632 7.9132 28.6875 8.5 28.6875H14.1667C14.7535 28.6875 15.2292 29.1632 15.2292 29.75C15.2292 30.3368 14.7535 30.8125 14.1667 30.8125H8.5C7.9132 30.8125 7.4375 30.3368 7.4375 29.75Z" fill="#F47500"/>
</svg>
