<svg width="34" height="34" viewBox="0 0 34 34" fill="none" xmlns="http://www.w3.org/2000/svg">
<path fill-rule="evenodd" clip-rule="evenodd" d="M8.9081 15.6787C8.94938 16.2641 8.50832 16.7721 7.92297 16.8133C2.62191 17.1871 2.61001 24.8669 7.88729 25.2735H10.5683C11.1551 25.2735 11.6308 25.7492 11.6308 26.336C11.6308 26.9228 11.1551 27.3985 10.5683 27.3985H7.84823C7.8233 27.3985 7.79837 27.3976 7.7735 27.3958C-0.173523 26.8355 -0.173523 15.254 7.7735 14.6936C8.35885 14.6523 8.86683 15.0934 8.9081 15.6787Z" fill="#F47500"/>
<path fill-rule="evenodd" clip-rule="evenodd" d="M9.23946 8.39238C8.22075 10.1389 7.87727 12.4956 8.91913 15.394C9.11762 15.9462 8.83088 16.5548 8.27867 16.7533C7.72647 16.9518 7.1179 16.6651 6.9194 16.1128C5.68751 12.6858 6.03641 9.66626 7.40388 7.32175C8.75674 5.00229 11.048 3.44328 13.5351 2.78873C16.0221 2.1342 18.7806 2.36428 21.0921 3.72306C23.2636 4.99956 24.9493 7.21885 25.6539 10.4142C28.7885 11.1165 30.9528 13.5427 31.7919 16.3013C32.697 19.2774 32.1061 22.7922 29.4234 25.1454C27.8139 26.6066 25.7339 27.4135 23.5555 27.3984H23.4317C22.8449 27.3984 22.3692 26.9227 22.3692 26.3359C22.3692 25.7491 22.8449 25.2734 23.4317 25.2734H23.5671C25.2088 25.2856 26.7791 24.6786 28.0008 23.5668L28.0163 23.553C29.9735 21.8404 30.4643 19.2391 29.7588 16.9197C29.0535 14.6007 27.1988 12.7156 24.6153 12.3875C24.1493 12.3283 23.7775 11.9701 23.7009 11.5067C23.1976 8.46082 21.7506 6.57513 20.0152 5.55498C18.2546 4.52003 16.0903 4.31361 14.0759 4.84376C12.0615 5.37389 10.2728 6.62077 9.23946 8.39238Z" fill="#F47500"/>
<path fill-rule="evenodd" clip-rule="evenodd" d="M16.9998 17.3967C13.6766 17.3967 10.979 20.0944 10.979 23.4176C10.979 24.312 11.1722 25.1447 11.5246 25.8731C11.5296 25.8834 11.5345 25.8939 11.5391 25.9044C11.6332 26.116 11.7375 26.3127 11.8516 26.4953L11.8645 26.5164C12.8992 28.261 14.8116 29.4384 16.9998 29.4384C19.188 29.4384 21.1004 28.261 22.1352 26.5164L22.148 26.4953C22.2621 26.3127 22.3665 26.116 22.4605 25.9044C22.4652 25.8939 22.47 25.8834 22.4751 25.8731C22.8275 25.1447 23.0207 24.312 23.0207 23.4176C23.0207 20.0944 20.323 17.3967 16.9998 17.3967ZM8.854 23.4176C8.854 18.9208 12.503 15.2717 16.9998 15.2717C21.4966 15.2717 25.1457 18.9208 25.1457 23.4176C25.1457 24.6138 24.888 25.7588 24.3954 26.7831C24.2662 27.0719 24.1202 27.3481 23.9566 27.611C22.5532 29.9689 19.9639 31.5634 16.9998 31.5634C14.0358 31.5634 11.4464 29.9689 10.043 27.6109C9.87947 27.3481 9.73343 27.0719 9.60429 26.7831C9.11163 25.7588 8.854 24.6138 8.854 23.4176Z" fill="#F47500"/>
<path fill-rule="evenodd" clip-rule="evenodd" d="M19.9901 21.3079C20.3885 21.7387 20.3623 22.4109 19.9315 22.8093L16.914 25.6002C16.495 25.9877 15.8448 25.975 15.4412 25.5714L14.0387 24.1689C13.6238 23.754 13.6238 23.0813 14.0387 22.6663C14.4537 22.2514 15.1264 22.2514 15.5413 22.6663L16.2213 23.3463L18.4886 21.2493C18.9194 20.8508 19.5916 20.8771 19.9901 21.3079Z" fill="#F47500"/>
</svg>
