<svg width="315" height="418" viewBox="0 0 315 418" fill="none" xmlns="http://www.w3.org/2000/svg">
<path d="M237.349 86.8374C231.825 72.0351 222.447 61.9162 209.216 56.4807C196.085 50.8694 179.483 50.8009 159.411 56.2749C146.122 59.8991 135.518 64.6442 127.599 70.5103C119.68 76.3764 114.334 82.9495 111.56 90.2295C108.749 97.3715 108.328 104.825 110.297 112.591C111.751 119.014 114.521 124.264 118.607 128.339C122.831 132.376 128.151 135.521 134.566 137.775C141.081 139.853 148.592 141.214 157.096 141.86C165.601 142.506 174.981 142.543 185.235 141.97L224.039 140.283C246.322 139.099 266.528 140.112 284.655 143.323C302.922 146.496 318.953 151.835 332.749 159.341C346.684 166.808 358.352 176.599 367.753 188.713C377.154 200.827 384.239 215.352 389.006 232.288C396.169 259.098 395.652 283.925 387.456 306.768C379.259 329.612 363.956 349.575 341.547 366.658C319.276 383.703 290.422 397.058 254.984 406.722C219.407 416.425 186.95 419.568 157.612 416.153C128.274 412.738 103.314 402.198 82.732 384.534C62.1499 366.87 47.135 341.535 37.6874 308.528L136.111 281.687C140.667 295.122 147.441 305.506 156.431 312.84C165.421 320.173 176.231 324.638 188.862 326.235C201.631 327.793 215.56 326.515 230.649 322.4C244.492 318.625 255.751 313.553 264.424 307.184C273.237 300.778 279.37 293.546 282.824 285.487C286.278 277.428 286.907 269.102 284.712 260.509C282.391 252.543 278.036 246.391 271.648 242.055C265.223 237.58 256.393 234.651 245.158 233.266C234.025 231.707 220.217 231.247 203.734 231.887L156.475 233.656C117.357 235.28 84.6493 229.596 58.3513 216.604C32.0156 203.475 14.5326 180.814 5.90215 148.623C-1.38684 122.441 -0.593074 97.5384 8.28345 73.9162C17.16 50.2939 32.69 29.5274 54.8734 11.6166C77.0568 -6.29416 104.276 -19.6477 136.53 -28.4439C169.476 -37.4289 199.586 -39.6358 226.86 -35.0645C254.234 -30.669 277.363 -20.2973 296.248 -3.94942C315.133 12.3984 328.308 33.7135 335.773 59.9957L237.349 86.8374Z" fill="#FFF7F1"/>
</svg>
