<svg width="22" height="11" viewBox="0 0 22 11" fill="none" xmlns="http://www.w3.org/2000/svg">
<path d="M0.884979 1.39503C0.884979 1.17336 0.966644 0.951698 1.14164 0.776698C1.47998 0.438365 2.03998 0.438365 2.37831 0.776698L9.98498 8.38336C10.545 8.94336 11.455 8.94336 12.015 8.38336L19.6216 0.776699C19.96 0.438366 20.52 0.438366 20.8583 0.776699C21.1966 1.11503 21.1966 1.67503 20.8583 2.01337L13.2516 9.62003C12.6566 10.215 11.8516 10.5534 11 10.5534C10.1483 10.5534 9.34331 10.2267 8.74831 9.62003L1.14164 2.01336C0.978311 1.83836 0.884979 1.6167 0.884979 1.39503Z" fill="#F47500"/>
</svg>
