<svg width="35" height="34" viewBox="0 0 35 34" fill="none" xmlns="http://www.w3.org/2000/svg">
<path fill-rule="evenodd" clip-rule="evenodd" d="M5.92634 5.00122C5.2036 5.72584 4.82373 7.07566 4.82373 9.91659V24.0833C4.82373 26.9242 5.2036 28.274 5.92634 28.9986C6.64909 29.7232 7.99542 30.1041 10.829 30.1041H13.655C14.2403 30.1041 14.7148 30.5798 14.7148 31.1666C14.7148 31.7534 14.2403 32.2291 13.655 32.2291H10.829C8.01057 32.2291 5.82439 31.9016 4.42762 30.5012C3.03086 29.1008 2.70422 26.909 2.70422 24.0833V9.91659C2.70422 7.09085 3.03086 4.899 4.42762 3.49862C5.82439 2.09823 8.01057 1.77075 10.829 1.77075H12.9485C14.1 1.77075 14.9667 1.93753 15.6827 2.36872C16.3453 2.76783 16.7741 3.34207 17.1411 3.83353C17.1567 3.85443 17.1722 3.87519 17.1876 3.89577L19.3051 6.7265C19.6002 7.11564 19.693 7.21909 19.8093 7.28957C19.8981 7.34338 20.1092 7.43742 20.72 7.43742H24.9591C27.7775 7.43742 29.9637 7.7649 31.3605 9.16528C32.7572 10.5657 33.0839 12.7575 33.0839 15.5833V18.4166C33.0839 19.0034 32.6094 19.4791 32.0241 19.4791C31.4388 19.4791 30.9643 19.0034 30.9643 18.4166V15.5833C30.9643 12.7423 30.5845 11.3925 29.8617 10.6679C29.139 9.94327 27.7927 9.56242 24.9591 9.56242H20.72C19.9179 9.56242 19.2671 9.44396 18.713 9.1082C18.2183 8.80845 17.8962 8.3815 17.6598 8.06815C17.6447 8.04812 17.63 8.02855 17.6155 8.0095L17.6115 8.00412L17.6115 8.0041L15.492 5.17077C15.064 4.59863 14.8648 4.35506 14.5912 4.1903C14.3427 4.04065 13.9165 3.89575 12.9485 3.89575H10.829C7.99542 3.89575 6.64909 4.2766 5.92634 5.00122Z" fill="#F47500"/>
<path fill-rule="evenodd" clip-rule="evenodd" d="M29.7201 22.8618C29.299 21.3003 28.4157 20.1681 27.2683 19.4929C25.9763 18.7325 24.4505 18.6108 23.09 18.9684C21.7295 19.326 20.4589 20.1827 19.7017 21.4794C19.0963 22.5162 18.8561 23.7712 19.0991 25.1559C15.7154 26.465 16.1172 32.0076 20.3044 32.3113C20.3298 32.3131 20.3554 32.3141 20.3809 32.3141H28.2372C29.4364 32.3141 30.6228 31.869 31.5158 31.0515C34.3225 28.582 33.1247 23.8784 29.7201 22.8618ZM20.3254 27.0268C20.4705 27.0384 20.6204 27.0201 20.7663 26.9677C21.3173 26.77 21.6042 26.1618 21.4069 25.6093C20.9362 24.2909 21.1078 23.2774 21.5308 22.553C21.9685 21.8035 22.7378 21.2578 23.6275 21.0239C24.5173 20.79 25.4518 20.8879 26.1954 21.3255C26.9139 21.7483 27.5556 22.5473 27.7852 23.9317C27.8622 24.3957 28.2342 24.7537 28.6998 24.8118C30.855 25.0806 31.7551 28.0217 30.112 29.4594L30.092 29.4773C29.6014 29.9291 28.927 30.1891 28.2372 30.1891H20.423C18.4924 30.0171 18.4598 27.2851 20.3254 27.0268Z" fill="#F47500"/>
</svg>
