<svg width="429" height="486" viewBox="0 0 429 486" fill="none" xmlns="http://www.w3.org/2000/svg">
<path d="M319.613 53.3948C312.146 33.3854 299.469 19.707 281.583 12.3594C263.833 4.77429 241.392 4.68157 214.258 12.0813C196.294 16.9803 181.96 23.3947 171.256 31.3243C160.552 39.2539 153.325 48.1392 149.575 57.9801C145.775 67.6345 145.206 77.7104 147.867 88.2078C149.833 96.8909 153.578 103.987 159.101 109.495C164.811 114.952 172.002 119.204 180.673 122.25C189.481 125.059 199.633 126.9 211.13 127.773C222.626 128.646 235.305 128.696 249.167 127.922L301.621 125.642C331.743 124.041 359.056 125.41 383.56 129.75C408.252 134.04 429.923 141.257 448.572 151.403C467.408 161.497 483.181 174.732 495.889 191.108C508.598 207.483 518.175 227.118 524.619 250.011C534.302 286.252 533.603 319.812 522.523 350.691C511.443 381.571 490.757 408.557 460.465 431.649C430.36 454.69 391.355 472.742 343.451 485.807C295.36 498.922 251.485 503.171 211.827 498.555C172.169 493.938 138.428 479.691 110.606 455.813C82.7836 431.935 62.4869 397.688 49.7159 353.07L182.762 316.787C188.921 334.948 198.077 348.986 210.23 358.899C222.382 368.812 236.996 374.848 254.07 377.005C271.331 379.112 290.16 377.384 310.556 371.822C329.269 366.719 344.488 359.863 356.213 351.254C368.125 342.594 376.416 332.817 381.085 321.924C385.754 311.031 386.604 299.776 383.637 288.159C380.5 277.39 374.613 269.075 365.978 263.213C357.292 257.164 345.356 253.205 330.169 251.334C315.119 249.225 296.454 248.604 274.173 249.469L210.29 251.86C157.412 254.055 113.198 246.372 77.6488 228.81C42.0489 211.062 18.4158 180.43 6.74947 136.914C-3.10359 101.522 -2.0306 67.8602 9.96844 35.9282C21.9675 3.99628 42.9605 -24.0753 72.9475 -48.2866C102.934 -72.4979 139.728 -90.5488 183.328 -102.439C227.864 -114.585 268.566 -117.568 305.434 -111.389C342.438 -105.447 373.703 -91.4269 399.231 -69.3283C424.759 -47.2298 442.569 -18.4167 452.66 17.1109L319.613 53.3948Z" fill="#FFF7F1"/>
</svg>
