<svg width="242" height="29" viewBox="0 0 242 29" fill="none" xmlns="http://www.w3.org/2000/svg">
<path d="M25.3748 2.41675H10.8748C10.2103 2.41675 9.6665 2.9605 9.6665 3.62508V7.25008C9.6665 7.91466 10.2103 8.45841 10.8748 8.45841H25.3748C26.0394 8.45841 26.5832 7.91466 26.5832 7.25008V3.62508C26.5832 2.9605 26.0394 2.41675 25.3748 2.41675Z" fill="#F47500"/>
<path d="M13.2918 20.5417H9.66683C9.00225 20.5417 8.4585 21.0855 8.4585 21.7501V25.3751C8.4585 26.0397 9.00225 26.5834 9.66683 26.5834H13.2918C13.9564 26.5834 14.5002 26.0397 14.5002 25.3751V21.7501C14.5002 21.0855 13.9564 20.5417 13.2918 20.5417Z" fill="#F47500"/>
<path d="M7.24984 11.4792H3.62484C2.96025 11.4792 2.4165 12.023 2.4165 12.6876V16.3126C2.4165 16.9772 2.96025 17.5209 3.62484 17.5209H7.24984C7.91442 17.5209 8.45817 16.9772 8.45817 16.3126V12.6876C8.45817 12.023 7.91442 11.4792 7.24984 11.4792Z" fill="#F47500"/>
<path d="M20.5415 11.6484H12.6873C12.0228 11.6484 11.479 12.1922 11.479 12.8568V16.1434C11.479 16.808 12.0228 17.3518 12.6873 17.3518H20.5415C21.2061 17.3518 21.7498 16.808 21.7498 16.1434V12.8568C21.7498 12.1922 21.2061 11.6484 20.5415 11.6484Z" fill="#F47500"/>
<path d="M46.2074 10.3438C46.1278 9.59943 45.7926 9.01989 45.2017 8.60511C44.6165 8.19034 43.8551 7.98295 42.9176 7.98295C42.2585 7.98295 41.6932 8.08239 41.2216 8.28125C40.75 8.48011 40.3892 8.75 40.1392 9.09091C39.8892 9.43182 39.7614 9.82102 39.7557 10.2585C39.7557 10.6222 39.8381 10.9375 40.0028 11.2045C40.1733 11.4716 40.4034 11.6989 40.6932 11.8864C40.983 12.0682 41.304 12.2216 41.6562 12.3466C42.0085 12.4716 42.3636 12.5767 42.7216 12.6619L44.358 13.071C45.017 13.2244 45.6506 13.4318 46.2585 13.6932C46.8722 13.9545 47.4205 14.2841 47.9034 14.6818C48.392 15.0795 48.7784 15.5597 49.0625 16.1222C49.3466 16.6847 49.4886 17.3437 49.4886 18.0994C49.4886 19.1222 49.2273 20.0227 48.7045 20.8011C48.1818 21.5739 47.4261 22.179 46.4375 22.6165C45.4545 23.0483 44.2642 23.2642 42.8665 23.2642C41.5085 23.2642 40.3295 23.054 39.3295 22.6335C38.3352 22.2131 37.5568 21.5994 36.9943 20.7926C36.4375 19.9858 36.1364 19.0028 36.0909 17.8438H39.2017C39.2472 18.4517 39.4347 18.9574 39.7642 19.3608C40.0938 19.7642 40.5227 20.0653 41.0511 20.2642C41.5852 20.4631 42.1818 20.5625 42.8409 20.5625C43.5284 20.5625 44.1307 20.4602 44.6477 20.2557C45.1705 20.0455 45.5795 19.7557 45.875 19.3864C46.1705 19.0114 46.321 18.5739 46.3267 18.0739C46.321 17.6193 46.1875 17.2443 45.9261 16.9489C45.6648 16.6477 45.2983 16.3977 44.8267 16.1989C44.3608 15.9943 43.8153 15.8125 43.1903 15.6534L41.2045 15.142C39.767 14.7727 38.6307 14.2131 37.7955 13.4631C36.9659 12.7074 36.5511 11.7045 36.5511 10.4545C36.5511 9.42614 36.8295 8.52557 37.3864 7.75284C37.9489 6.98011 38.7131 6.38068 39.679 5.95454C40.6449 5.52273 41.7386 5.30682 42.9602 5.30682C44.1989 5.30682 45.2841 5.52273 46.2159 5.95454C47.1534 6.38068 47.8892 6.97443 48.4233 7.73579C48.9574 8.49148 49.233 9.3608 49.25 10.3438H46.2074ZM52.1712 23V9.90909H55.12V12.1335H55.2734C55.5462 11.3835 55.9979 10.7983 56.6286 10.3778C57.2592 9.9517 58.0121 9.73864 58.8871 9.73864C59.7734 9.73864 60.5206 9.95455 61.1286 10.3864C61.7422 10.8125 62.174 11.3949 62.424 12.1335H62.5604C62.8501 11.4062 63.3388 10.8267 64.0263 10.3949C64.7195 9.95739 65.5405 9.73864 66.4893 9.73864C67.6939 9.73864 68.6768 10.1193 69.4382 10.8807C70.1996 11.642 70.5803 12.7528 70.5803 14.2131V23H67.4865V14.6903C67.4865 13.8778 67.2706 13.2841 66.8388 12.9091C66.407 12.5284 65.8786 12.3381 65.2536 12.3381C64.5092 12.3381 63.9268 12.571 63.5064 13.0369C63.0916 13.4972 62.8842 14.0966 62.8842 14.8352V23H59.8587V14.5625C59.8587 13.8864 59.6541 13.3466 59.245 12.9432C58.8416 12.5398 58.3132 12.3381 57.6598 12.3381C57.2166 12.3381 56.8132 12.4517 56.4496 12.679C56.0859 12.9006 55.7962 13.2159 55.5803 13.625C55.3643 14.0284 55.2564 14.5 55.2564 15.0398V23H52.1712ZM77.4773 23.2642C76.6477 23.2642 75.9006 23.1165 75.2358 22.821C74.5767 22.5199 74.054 22.0767 73.6676 21.4915C73.2869 20.9062 73.0966 20.1847 73.0966 19.3267C73.0966 18.5881 73.233 17.9773 73.5057 17.4943C73.7784 17.0114 74.1506 16.625 74.6222 16.3352C75.0938 16.0455 75.625 15.8267 76.2159 15.679C76.8125 15.5256 77.429 15.4148 78.0653 15.3466C78.8324 15.267 79.4545 15.196 79.9318 15.1335C80.4091 15.0653 80.7557 14.9631 80.9716 14.8267C81.1932 14.6847 81.304 14.4659 81.304 14.1705V14.1193C81.304 13.4773 81.1136 12.9801 80.733 12.6278C80.3523 12.2756 79.804 12.0994 79.0881 12.0994C78.3324 12.0994 77.733 12.2642 77.2898 12.5938C76.8523 12.9233 76.5568 13.3125 76.4034 13.7614L73.5227 13.3523C73.75 12.5568 74.125 11.892 74.6477 11.358C75.1705 10.8182 75.8097 10.4148 76.5653 10.1477C77.321 9.875 78.1563 9.73864 79.071 9.73864C79.7017 9.73864 80.3295 9.8125 80.9545 9.96023C81.5795 10.108 82.1506 10.3523 82.6676 10.6932C83.1847 11.0284 83.5994 11.4858 83.9119 12.0653C84.2301 12.6449 84.3892 13.3693 84.3892 14.2386V23H81.4233V21.2017H81.321C81.1335 21.5653 80.8693 21.9062 80.5284 22.2244C80.1932 22.5369 79.7699 22.7898 79.2585 22.983C78.7528 23.1705 78.1591 23.2642 77.4773 23.2642ZM78.2784 20.9972C78.8977 20.9972 79.4347 20.875 79.8892 20.6307C80.3438 20.3807 80.6932 20.0511 80.9375 19.642C81.1875 19.233 81.3125 18.7869 81.3125 18.304V16.7614C81.2159 16.8409 81.0511 16.9148 80.8182 16.983C80.5909 17.0511 80.3352 17.1108 80.0511 17.1619C79.767 17.2131 79.4858 17.2585 79.2074 17.2983C78.929 17.3381 78.6875 17.3722 78.483 17.4006C78.0227 17.4631 77.6108 17.5653 77.2472 17.7074C76.8835 17.8494 76.5966 18.0483 76.3864 18.304C76.1761 18.554 76.071 18.8778 76.071 19.2756C76.071 19.8438 76.2784 20.2727 76.6932 20.5625C77.108 20.8523 77.6364 20.9972 78.2784 20.9972ZM87.4915 23V9.90909H90.483V12.0909H90.6193C90.858 11.3352 91.267 10.7528 91.8466 10.3438C92.4318 9.92898 93.0994 9.72159 93.8494 9.72159C94.0199 9.72159 94.2102 9.73011 94.4205 9.74716C94.6364 9.75852 94.8153 9.77841 94.9574 9.80682V12.6449C94.8267 12.5994 94.6193 12.5597 94.3352 12.5256C94.0568 12.4858 93.7869 12.4659 93.5256 12.4659C92.9631 12.4659 92.4574 12.5881 92.0085 12.8324C91.5653 13.071 91.2159 13.4034 90.9602 13.8295C90.7045 14.2557 90.5767 14.7472 90.5767 15.304V23H87.4915ZM104.247 9.90909V12.2955H96.7216V9.90909H104.247ZM98.5795 6.77273H101.665V19.0625C101.665 19.4773 101.727 19.7955 101.852 20.017C101.983 20.233 102.153 20.3807 102.364 20.4602C102.574 20.5398 102.807 20.5795 103.062 20.5795C103.256 20.5795 103.432 20.5653 103.591 20.5369C103.756 20.5085 103.881 20.483 103.966 20.4602L104.486 22.8722C104.321 22.929 104.085 22.9915 103.778 23.0597C103.477 23.1278 103.108 23.1676 102.67 23.179C101.898 23.2017 101.202 23.0852 100.582 22.8295C99.9631 22.5682 99.4716 22.1648 99.108 21.6193C98.75 21.0739 98.5739 20.392 98.5795 19.5739V6.77273ZM112.917 23V5.54545H119.462C120.803 5.54545 121.928 5.77841 122.837 6.24432C123.752 6.71023 124.442 7.36364 124.908 8.20454C125.38 9.03977 125.616 10.0142 125.616 11.1278C125.616 12.2472 125.377 13.2187 124.9 14.0426C124.428 14.8608 123.732 15.4943 122.812 15.9432C121.891 16.3864 120.761 16.608 119.42 16.608H114.758V13.983H118.994C119.778 13.983 120.42 13.875 120.92 13.6591C121.42 13.4375 121.789 13.1165 122.028 12.696C122.272 12.2699 122.394 11.7472 122.394 11.1278C122.394 10.5085 122.272 9.98011 122.028 9.54261C121.783 9.09943 121.411 8.7642 120.911 8.53693C120.411 8.30398 119.766 8.1875 118.977 8.1875H116.079V23H112.917ZM121.934 15.0909L126.255 23H122.727L118.482 15.0909H121.934ZM133.998 23.2557C132.685 23.2557 131.552 22.983 130.597 22.4375C129.648 21.8864 128.918 21.108 128.407 20.1023C127.896 19.0909 127.64 17.9006 127.64 16.5312C127.64 15.1847 127.896 14.0028 128.407 12.9858C128.924 11.9631 129.646 11.1676 130.572 10.5994C131.498 10.0256 132.586 9.73864 133.836 9.73864C134.643 9.73864 135.404 9.86932 136.12 10.1307C136.842 10.3864 137.478 10.7841 138.029 11.3239C138.586 11.8636 139.023 12.5511 139.342 13.3864C139.66 14.2159 139.819 15.2045 139.819 16.3523V17.2983H129.089V15.2188H136.862C136.856 14.6278 136.728 14.1023 136.478 13.642C136.228 13.1761 135.879 12.8097 135.43 12.5426C134.987 12.2756 134.469 12.142 133.879 12.142C133.248 12.142 132.694 12.2955 132.217 12.6023C131.739 12.9034 131.367 13.3011 131.1 13.7955C130.839 14.2841 130.705 14.821 130.7 15.4062V17.2216C130.7 17.983 130.839 18.6364 131.117 19.1818C131.396 19.7216 131.785 20.1364 132.285 20.4261C132.785 20.7102 133.37 20.8523 134.04 20.8523C134.489 20.8523 134.896 20.7898 135.259 20.6648C135.623 20.5341 135.938 20.3438 136.205 20.0938C136.472 19.8438 136.674 19.5341 136.81 19.1648L139.691 19.4886C139.509 20.25 139.163 20.9148 138.651 21.483C138.146 22.0455 137.498 22.483 136.708 22.7955C135.918 23.1023 135.015 23.2557 133.998 23.2557ZM145.514 15.3295V23H142.429V9.90909H145.378V12.1335H145.531C145.832 11.4006 146.313 10.8182 146.972 10.3864C147.636 9.95455 148.457 9.73864 149.435 9.73864C150.338 9.73864 151.125 9.93182 151.795 10.3182C152.472 10.7045 152.994 11.2642 153.364 11.9972C153.739 12.7301 153.923 13.6193 153.918 14.6648V23H150.832V15.142C150.832 14.267 150.605 13.5824 150.151 13.0881C149.702 12.5937 149.08 12.3466 148.284 12.3466C147.744 12.3466 147.264 12.4659 146.844 12.7045C146.429 12.9375 146.102 13.2756 145.864 13.7188C145.631 14.1619 145.514 14.6989 145.514 15.3295ZM163.591 9.90909V12.2955H156.065V9.90909H163.591ZM157.923 6.77273H161.009V19.0625C161.009 19.4773 161.071 19.7955 161.196 20.017C161.327 20.233 161.497 20.3807 161.707 20.4602C161.918 20.5398 162.151 20.5795 162.406 20.5795C162.599 20.5795 162.776 20.5653 162.935 20.5369C163.099 20.5085 163.224 20.483 163.31 20.4602L163.83 22.8722C163.665 22.929 163.429 22.9915 163.122 23.0597C162.821 23.1278 162.452 23.1676 162.014 23.179C161.241 23.2017 160.545 23.0852 159.926 22.8295C159.307 22.5682 158.815 22.1648 158.452 21.6193C158.094 21.0739 157.918 20.392 157.923 19.5739V6.77273ZM166.171 23V9.90909H169.256V23H166.171ZM167.722 8.05114C167.234 8.05114 166.813 7.8892 166.461 7.56534C166.109 7.23579 165.933 6.84091 165.933 6.38068C165.933 5.91477 166.109 5.51989 166.461 5.19602C166.813 4.86648 167.234 4.7017 167.722 4.7017C168.217 4.7017 168.637 4.86648 168.984 5.19602C169.336 5.51989 169.512 5.91477 169.512 6.38068C169.512 6.84091 169.336 7.23579 168.984 7.56534C168.637 7.8892 168.217 8.05114 167.722 8.05114ZM175.514 15.3295V23H172.429V9.90909H175.378V12.1335H175.531C175.832 11.4006 176.313 10.8182 176.972 10.3864C177.636 9.95455 178.457 9.73864 179.435 9.73864C180.338 9.73864 181.125 9.93182 181.795 10.3182C182.472 10.7045 182.994 11.2642 183.364 11.9972C183.739 12.7301 183.923 13.6193 183.918 14.6648V23H180.832V15.142C180.832 14.267 180.605 13.5824 180.151 13.0881C179.702 12.5937 179.08 12.3466 178.284 12.3466C177.744 12.3466 177.264 12.4659 176.844 12.7045C176.429 12.9375 176.102 13.2756 175.864 13.7188C175.631 14.1619 175.514 14.6989 175.514 15.3295ZM192.747 28.1818C191.639 28.1818 190.688 28.0313 189.892 27.7301C189.097 27.4347 188.457 27.0369 187.974 26.5369C187.491 26.0369 187.156 25.483 186.969 24.875L189.747 24.2017C189.872 24.4574 190.054 24.7102 190.293 24.9602C190.531 25.2159 190.852 25.4261 191.256 25.5909C191.665 25.7614 192.179 25.8466 192.798 25.8466C193.673 25.8466 194.398 25.6335 194.972 25.2074C195.545 24.7869 195.832 24.0938 195.832 23.1278V20.6477H195.679C195.52 20.9659 195.287 21.2926 194.98 21.6278C194.679 21.9631 194.278 22.2443 193.778 22.4716C193.284 22.6989 192.662 22.8125 191.912 22.8125C190.906 22.8125 189.994 22.5767 189.176 22.1051C188.364 21.6278 187.716 20.9176 187.233 19.9744C186.756 19.0256 186.517 17.8381 186.517 16.4119C186.517 14.9744 186.756 13.7614 187.233 12.7727C187.716 11.7784 188.366 11.0256 189.185 10.5142C190.003 9.99716 190.915 9.73864 191.92 9.73864C192.688 9.73864 193.318 9.86932 193.812 10.1307C194.312 10.3864 194.71 10.696 195.006 11.0597C195.301 11.4176 195.526 11.7557 195.679 12.0739H195.849V9.90909H198.892V23.2131C198.892 24.3324 198.625 25.2585 198.091 25.9915C197.557 26.7244 196.827 27.2727 195.901 27.6364C194.974 28 193.923 28.1818 192.747 28.1818ZM192.773 20.392C193.426 20.392 193.983 20.233 194.443 19.9148C194.903 19.5966 195.253 19.1392 195.491 18.5426C195.73 17.946 195.849 17.2301 195.849 16.3949C195.849 15.571 195.73 14.8494 195.491 14.2301C195.259 13.6108 194.912 13.1307 194.452 12.7898C193.997 12.4432 193.438 12.2699 192.773 12.2699C192.085 12.2699 191.511 12.4489 191.051 12.8068C190.591 13.1648 190.244 13.6562 190.011 14.2812C189.778 14.9006 189.662 15.6051 189.662 16.3949C189.662 17.196 189.778 17.8977 190.011 18.5C190.25 19.0966 190.599 19.5625 191.06 19.8977C191.526 20.2273 192.097 20.392 192.773 20.392Z" fill="#333333"/>
<path d="M219.146 5.54545H222.308V16.9489C222.308 18.1989 222.013 19.2983 221.422 20.2472C220.837 21.196 220.013 21.9375 218.95 22.4716C217.888 23 216.646 23.2642 215.226 23.2642C213.8 23.2642 212.555 23 211.493 22.4716C210.43 21.9375 209.607 21.196 209.021 20.2472C208.436 19.2983 208.143 18.1989 208.143 16.9489V5.54545H211.305V16.6847C211.305 17.4119 211.464 18.0597 211.783 18.6278C212.107 19.196 212.561 19.642 213.146 19.9659C213.732 20.2841 214.425 20.4432 215.226 20.4432C216.027 20.4432 216.72 20.2841 217.305 19.9659C217.896 19.642 218.351 19.196 218.669 18.6278C218.987 18.0597 219.146 17.4119 219.146 16.6847V5.54545ZM227.987 23H224.612L230.756 5.54545H234.66L240.813 23H237.438L232.776 9.125H232.64L227.987 23ZM228.097 16.1562H237.302V18.696H228.097V16.1562Z" fill="#F47500"/>
</svg>
