<svg width="54" height="54" viewBox="0 0 54 54" fill="none" xmlns="http://www.w3.org/2000/svg">
<path d="M47.25 4.5H20.25C19.0125 4.5 18 5.5125 18 6.75V13.5C18 14.7375 19.0125 15.75 20.25 15.75H47.25C48.4875 15.75 49.5 14.7375 49.5 13.5V6.75C49.5 5.5125 48.4875 4.5 47.25 4.5Z" fill="#F47500"/>
<path d="M24.75 38.25H18C16.7625 38.25 15.75 39.2625 15.75 40.5V47.25C15.75 48.4875 16.7625 49.5 18 49.5H24.75C25.9875 49.5 27 48.4875 27 47.25V40.5C27 39.2625 25.9875 38.25 24.75 38.25Z" fill="#F47500"/>
<path d="M13.5 21.375H6.75C5.5125 21.375 4.5 22.3875 4.5 23.625V30.375C4.5 31.6125 5.5125 32.625 6.75 32.625H13.5C14.7375 32.625 15.75 31.6125 15.75 30.375V23.625C15.75 22.3875 14.7375 21.375 13.5 21.375Z" fill="#F47500"/>
<path d="M38.25 21.6899H23.625C22.3875 21.6899 21.375 22.7024 21.375 23.9399V30.0599C21.375 31.2974 22.3875 32.3099 23.625 32.3099H38.25C39.4875 32.3099 40.5 31.2974 40.5 30.0599V23.9399C40.5 22.7024 39.4875 21.6899 38.25 21.6899Z" fill="#F47500"/>
</svg>
