<svg width="57" height="37" viewBox="0 0 57 37" fill="none" xmlns="http://www.w3.org/2000/svg">
<path opacity="0.2" d="M50.0148 13.9362C52.1251 14.64 53.8134 15.907 55.0796 17.737C56.3458 19.4262 56.9789 21.3266 56.9789 23.4381C57.1196 25.5497 56.5568 27.6612 55.2906 29.7728C54.1651 31.7435 52.3362 33.4328 49.8038 34.8405C45.7238 36.952 42.1362 37.5151 39.0411 36.5297C35.9459 35.4035 33.7653 33.7143 32.4991 31.462C31.7956 30.3358 31.2329 28.7874 30.8108 26.8166C30.5294 24.8458 30.3887 22.8047 30.3887 20.6931C30.5294 18.4408 30.8108 16.2589 31.2329 14.1473C31.6549 12.0358 32.288 10.2762 33.1322 8.86848C33.8356 7.8831 34.6797 6.82732 35.6646 5.70117C36.5087 4.71578 37.4935 3.73039 38.619 2.74501C39.8852 1.75962 41.2921 0.844617 42.8397 0L50.2258 0.422309C49.241 1.54847 48.3265 2.60424 47.4824 3.58962C46.779 4.43424 46.1459 5.20847 45.5831 5.91232C45.0204 6.61617 44.4576 7.24963 43.8949 7.81271C42.91 8.7981 42.1362 9.78348 41.5735 10.7689C41.0107 11.6135 40.5183 12.5285 40.0963 13.5139C39.8149 14.4993 39.8149 15.4847 40.0963 16.47C41.9252 14.4993 44.0355 13.5139 46.4272 13.5139C47.5528 13.5139 48.7486 13.6546 50.0148 13.9362ZM20.8923 14.992C22.8619 16.1181 24.2688 17.6666 25.1129 19.6374C26.0977 21.4674 26.4495 23.4381 26.1681 25.5497C25.8867 27.6612 24.9722 29.632 23.4247 31.462C22.0178 33.292 19.9074 34.6997 17.0937 35.6851C12.7323 37.0928 9.14476 37.0224 6.33099 35.4739C3.51722 33.7847 1.61792 31.7435 0.633099 29.3505C0.211033 28.0835 0 26.4647 0 24.4939C0 22.5231 0.211033 20.482 0.633099 18.3704C1.05516 16.2589 1.61792 14.2177 2.32136 12.247C3.02481 10.2762 3.93928 8.65733 5.06479 7.3904C5.90892 6.40501 6.89374 5.49001 8.01925 4.6454C9.00407 3.94155 10.1296 3.16732 11.3958 2.3227C12.8027 1.47808 14.3502 0.703848 16.0385 0L23.4247 1.90039C22.2991 2.88578 21.244 3.73039 20.2592 4.43424C19.415 5.13809 18.6412 5.77155 17.9378 6.33463C17.2344 6.89771 16.5309 7.46079 15.8275 8.02386C14.8427 8.86848 13.9985 9.7131 13.2951 10.5577C12.5916 11.2616 11.9585 12.1062 11.3958 13.0916C10.833 13.9362 10.622 14.8512 10.7627 15.8366C11.8882 14.992 13.0137 14.4993 14.1392 14.3585C15.4054 14.077 16.5309 14.0066 17.5157 14.1473C18.6412 14.2881 19.7668 14.5696 20.8923 14.992Z" fill="#006A8E"/>
</svg>
