<svg width="28" height="32" viewBox="0 0 28 32" fill="none" xmlns="http://www.w3.org/2000/svg">
<path fill-rule="evenodd" clip-rule="evenodd" d="M11.539 3.36964C11.5388 3.3697 11.5391 3.36958 11.539 3.36964L3.66403 6.60146C3.35733 6.72526 3.02126 7.00372 2.75768 7.39683C2.49391 7.7902 2.36389 8.20718 2.36389 8.53415V14.7533C2.36389 21.1853 7.04437 27.2664 13.4536 29.0428C13.7365 29.1199 14.0515 29.1199 14.3345 29.0428C20.7437 27.2664 25.4242 21.1853 25.4242 14.7533L25.4242 14.7509L25.4383 8.53415C25.4383 8.53381 25.4383 8.5345 25.4383 8.53415C25.438 8.21114 25.3071 7.79435 25.0406 7.39885C24.7739 7.00313 24.4358 6.72318 24.1337 6.59963L16.2632 3.36964C16.2629 3.36953 16.2634 3.36975 16.2632 3.36964C14.7539 2.75251 13.0482 2.75241 11.539 3.36964ZM10.7383 1.4021C12.7612 0.574626 15.041 0.574626 17.0638 1.4021L24.9342 4.63202C25.7055 4.94777 26.3502 5.54636 26.7969 6.20925C27.2436 6.87229 27.5578 7.69565 27.5578 8.53415L27.5578 8.53658L27.5437 14.7533C27.5437 14.7529 27.5437 14.7538 27.5437 14.7533C27.5431 22.1752 22.1924 29.0708 14.8969 31.0916L14.8935 31.0926C14.2447 31.27 13.5434 31.27 12.8945 31.0926L12.8912 31.0916C5.59526 29.0706 0.244385 22.1757 0.244385 14.7533V8.53415C0.244385 7.69947 0.552409 6.87685 0.998688 6.21128C1.44456 5.54631 2.08943 4.94716 2.86935 4.63146L10.7383 1.4021Z" fill="#F47500"/>
<path fill-rule="evenodd" clip-rule="evenodd" d="M13.8941 12.1042C12.9186 12.1042 12.1278 12.8971 12.1278 13.8751C12.1278 14.8531 12.9186 15.6459 13.8941 15.6459C14.8695 15.6459 15.6603 14.8531 15.6603 13.8751C15.6603 12.8971 14.8695 12.1042 13.8941 12.1042ZM10.0083 13.8751C10.0083 11.7235 11.748 9.97925 13.8941 9.97925C16.0401 9.97925 17.7798 11.7235 17.7798 13.8751C17.7798 16.0267 16.0401 17.7709 13.8941 17.7709C11.748 17.7709 10.0083 16.0267 10.0083 13.8751Z" fill="#F47500"/>
<path fill-rule="evenodd" clip-rule="evenodd" d="M13.8941 15.646C14.4794 15.646 14.9539 16.1217 14.9539 16.7085V20.9585C14.9539 21.5453 14.4794 22.021 13.8941 22.021C13.3088 22.021 12.8344 21.5453 12.8344 20.9585V16.7085C12.8344 16.1217 13.3088 15.646 13.8941 15.646Z" fill="#F47500"/>
</svg>
