<svg width="30" height="34" viewBox="0 0 30 34" fill="none" xmlns="http://www.w3.org/2000/svg">
<path fill-rule="evenodd" clip-rule="evenodd" d="M14.7759 0C15.7379 0 16.7583 0.133195 17.5982 0.439517L17.608 0.443108L25.4993 3.4004C26.6807 3.84217 27.6876 4.72901 28.3941 5.75033C29.1008 6.77178 29.5755 8.02679 29.5755 9.28782V21.039C29.5755 22.2076 29.1977 23.4711 28.6444 24.571C28.0909 25.6714 27.3012 26.7288 26.3633 27.4297L19.5652 32.5046C19.5646 32.505 19.564 32.5055 19.5634 32.5059C18.2068 33.525 16.4695 34 14.7878 34C13.1059 34 11.3685 33.525 10.0119 32.5058C10.0114 32.5054 10.0109 32.505 10.0103 32.5046L3.21275 27.4301C2.27489 26.7292 1.48466 25.6715 0.931145 24.5711C0.37784 23.4711 0 22.2077 0 21.039V9.28782C0 8.02679 0.47474 6.77178 1.18136 5.75033C1.88781 4.72912 2.89457 3.84235 4.07587 3.40054C4.076 3.40049 4.07575 3.40058 4.07587 3.40054L11.9675 0.443151C12.7972 0.133257 13.8153 0 14.7759 0ZM12.7988 2.66511C12.7985 2.6652 12.799 2.66502 12.7988 2.66511L4.90793 5.6222C4.27058 5.86052 3.62391 6.38949 3.13239 7.10001C2.64097 7.81038 2.37237 8.60352 2.37237 9.28782V21.039C2.37237 21.7365 2.61135 22.632 3.0505 23.505C3.4894 24.3775 4.06771 25.1073 4.63231 25.5293C4.63235 25.5294 4.63227 25.5293 4.63231 25.5293L11.4359 30.6083C12.3091 31.2648 13.5206 31.6276 14.7878 31.6276C16.0549 31.6276 17.2664 31.2648 18.1396 30.6083L18.1428 30.6059L24.9431 25.5294C25.5076 25.1074 26.0862 24.3774 26.525 23.505C26.9642 22.632 27.2031 21.7365 27.2031 21.039V9.28782C27.2031 8.60352 26.9345 7.81038 26.4431 7.10001C25.9516 6.38949 25.3057 5.86082 24.6684 5.62251L16.7808 2.66664C16.2766 2.48365 15.5513 2.37237 14.7759 2.37237C13.9971 2.37237 13.2818 2.48487 12.7988 2.66511Z" fill="#F47500"/>
<path fill-rule="evenodd" clip-rule="evenodd" d="M14.7718 11.075C11.933 11.075 9.63165 13.3763 9.63165 16.2151C9.63165 19.054 11.933 21.3553 14.7718 21.3553C17.6106 21.3553 19.9119 19.054 19.9119 16.2151C19.9119 13.3763 17.6106 11.075 14.7718 11.075ZM7.25928 16.2151C7.25928 12.0661 10.6227 8.70264 14.7718 8.70264C18.9208 8.70264 22.2843 12.0661 22.2843 16.2151C22.2843 20.3642 18.9208 23.7276 14.7718 23.7276C10.6227 23.7276 7.25928 20.3642 7.25928 16.2151Z" fill="#F47500"/>
<path fill-rule="evenodd" clip-rule="evenodd" d="M15.1672 13.052C15.8224 13.052 16.3534 13.5831 16.3534 14.2382V15.7091C16.3534 16.6638 15.8628 17.5818 14.9985 18.0888L13.8045 18.8115C13.244 19.1507 12.5147 18.9714 12.1755 18.4109C11.8363 17.8505 12.0156 17.1212 12.5761 16.782L13.7966 16.0432C13.9063 15.9795 13.9811 15.8575 13.9811 15.7091V14.2382C13.9811 13.5831 14.5121 13.052 15.1672 13.052Z" fill="#F47500"/>
</svg>
