<svg width="58" height="63" viewBox="0 0 58 63" fill="none" xmlns="http://www.w3.org/2000/svg">
<path d="M31.8287 16.1518C30.7591 14.2884 29.2764 13.1389 27.3806 12.7032C25.4945 12.2418 23.2656 12.6009 20.6941 13.7806C18.9916 14.5617 17.6742 15.4336 16.742 16.3963C15.8097 17.359 15.2383 18.3595 15.0277 19.3978C14.8089 20.4184 14.9178 21.4277 15.3543 22.4259C15.6919 23.2554 16.18 23.8982 16.8186 24.3543C17.4749 24.8022 18.2584 25.1062 19.169 25.2662C20.0893 25.4004 21.1271 25.4165 22.2825 25.3144C23.4378 25.2124 24.697 25.0092 26.0601 24.7048L31.2287 23.6176C34.192 22.9643 36.9254 22.652 39.4287 22.6805C41.9497 22.7009 44.219 23.0616 46.2364 23.7625C48.2716 24.4552 50.0543 25.5099 51.5844 26.9266C53.1145 28.3432 54.3873 30.1348 55.4026 32.3012C56.9584 35.7391 57.4399 39.0814 56.8471 42.3281C56.2542 45.5747 54.6441 48.5926 52.0166 51.3817C49.4068 54.1626 45.8319 56.5945 41.2919 58.6774C36.7341 60.7685 32.4492 61.9103 28.4374 62.103C24.4255 62.2958 20.843 61.4355 17.6897 59.5223C14.5364 57.6091 11.9598 54.5432 9.96 50.3245L22.5693 44.5396C23.4787 46.2411 24.6178 47.484 25.9867 48.2684C27.3555 49.0529 28.9049 49.412 30.635 49.346C32.3827 49.2717 34.2231 48.7912 36.1562 47.9044C37.9296 47.0907 39.3276 46.1605 40.35 45.1136C41.3902 44.0586 42.0526 42.9522 42.3371 41.7944C42.6217 40.6366 42.5215 39.5056 42.0363 38.4013C41.5481 37.384 40.8274 36.6554 39.8742 36.2153C38.9128 35.7575 37.6631 35.5604 36.1252 35.624C34.5968 35.6617 32.7341 35.9064 30.5369 36.358L24.2358 37.6438C19.0236 38.7296 14.5093 38.6928 10.6928 37.5332C6.86822 36.356 4.01987 33.7037 2.14775 29.5762C0.588935 26.2253 0.142926 22.8667 0.809724 19.5005C1.47652 16.1343 3.09933 13.0037 5.67815 10.1085C8.25698 7.21335 11.6125 4.8179 15.7446 2.92214C19.9655 0.985705 23.9562 0.0215762 27.7167 0.029754C31.4869 0.0121183 34.8201 0.890446 37.7165 2.66474C40.6128 4.43902 42.8533 7.00641 44.438 10.3669L31.8287 16.1518Z" fill="#FFF7F1"/>
</svg>
