<svg width="20" height="20" viewBox="0 0 20 20" fill="none" xmlns="http://www.w3.org/2000/svg">
<path d="M20 4.18612C19.2511 4.52478 18.4567 4.74707 17.6433 4.84561C18.4905 4.32727 19.1411 3.50646 19.4474 2.52847C18.642 3.01633 17.7608 3.36007 16.8419 3.54482C16.0934 2.73086 15.027 2.22217 13.8468 2.22217C11.5807 2.22217 9.74344 4.09745 9.74344 6.41037C9.74344 6.73868 9.77977 7.05829 9.84969 7.36491C6.43953 7.19019 3.41609 5.52281 1.39227 2.98883C1.03914 3.60742 0.836797 4.32695 0.836797 5.09442C0.836797 6.54753 1.56125 7.82943 2.66219 8.58054C2.01059 8.55971 1.37332 8.38007 0.803594 8.05662C0.803359 8.07416 0.803359 8.09171 0.803359 8.10933C0.803359 10.1386 2.21773 11.8314 4.09477 12.2162C3.49054 12.3839 2.85674 12.4085 2.2418 12.288C2.76391 13.9519 4.2793 15.1628 6.07477 15.1967C4.67047 16.3199 2.90117 16.9896 0.978828 16.9896C0.647578 16.9896 0.321016 16.9697 0 16.931C1.81586 18.1194 3.97266 18.8128 6.28984 18.8128C13.8373 18.8128 17.9644 12.4307 17.9644 6.89609C17.9644 6.71443 17.9605 6.53381 17.9525 6.35423C18.7558 5.76147 19.4492 5.02728 20 4.18612Z" fill="white"/>
</svg>
